<?xml version="1.0" encoding="UTF-8" standalone="no" ?>
<svg
  version="1.1"
  id="Capa_1"
  x="0px"
  y="0px"
  viewBox="0 0 312.5 199.1"
  style="enable-background:new 0 0 312.5 199.1;"
  xmlSpace="preserve"
  xmlns="http://www.w3.org/2000/svg"
  xmlnsSvg="http://www.w3.org/2000/svg"
><defs id="defs20" />
<style type="text/css" id="style1">
  .backwing{opacity:0.75;fill-rule:evenodd;clip-rule:evenodd;fill:#E6E6E6;enable-background:new;}
  .head{fill:url(#SVGID_1_);}
  .torax{fill:url(#SVGID_2_);}
  .wingshadow{opacity:0.1;fill-rule:evenodd;clip-rule:evenodd;enable-background:new;}
  .toraxshadow{opacity:0.1;fill-rule:evenodd;clip-rule:evenodd;enable-background:new;}
  .mabdoment{fill-rule:evenodd;clip-rule:evenodd;fill:#FE6444;}
  .mgradient{fill-rule:evenodd;clip-rule:evenodd;fill:url(#SVGID_3_);}
  .wing{opacity:0.8;fill-rule:evenodd;clip-rule:evenodd;fill:#FFFFFF;enable-background:new;}
  .eyeshadow{fill-rule:evenodd;clip-rule:evenodd;fill:#4D4D4D;}
  .eye{fill-rule:evenodd;clip-rule:evenodd;fill:url(#SVGID_4_);}
  .antenna{fill:none;stroke:#666666;stroke-width:2.058;stroke-miterlimit:3.8637;}
  .antennatip{fill-rule:evenodd;clip-rule:evenodd;fill:#666666;}
  .eyehilight{opacity:0.15;fill-rule:evenodd;clip-rule:evenodd;fill:#FF0000;enable-background:new;}
  .eyespiral{fill:none;stroke:#FE6444;stroke-width:3;stroke-miterlimit:10;}
  .spin { transform-origin: 50% 50%; transform-box: fill-box; animation: spin 1.2s linear infinite; }
  @keyframes spin { 0% { transform: rotate(0deg); } 100% { transform: rotate(360deg); } }
  .backwing, .wing, .wingshadow { transform-origin: 0% 0%; transform-box: fill-box; animation: vibrate 5.5s linear infinite; }
  @keyframes vibrate {
    0% { transform: rotate(0deg); }
    3% { transform: rotate(3deg); }
    5% { transform: rotate(-5deg); }
    7% { transform: rotate(3deg); }
    9% { transform: rotate(-5deg); }
    11% { transform: rotate(3deg); }
    12% { transform: rotate(0deg); }
    100% { transform: rotate(0deg); }
 }
</style>
<g transform="translate(-372.9 -149.84789)" id="g20">
  <path
      class="backwing"
      d="M661,341.2c0,0-18.9,25.5-130.3-16.6c-118.1-44.7-82.1-81.6-80.1-83.7s45.3-29.6,152.8-2.8   C719.6,267,661,341.2,661,341.2z"
      id="path1"
    />
    <linearGradient
      id="SVGID_1_"
      gradientUnits="userSpaceOnUse"
      x1="1053.8352"
      y1="340.759"
      x2="1053.8352"
      y2="213.5479"
      gradientTransform="matrix(-1 0 0 -1 1506.1 498.7479)"
    >
    <stop offset="0" style="stop-color:#1A1A1A" id="stop1" />
    <stop offset="0.3497" style="stop-color:#1A1A1A" id="stop2" />
    <stop offset="1" style="stop-color:#666666" id="stop3" />
  </linearGradient>
  <path
      class="head"
      d="M450.6,272.4c-5.4,4.2-14.5,4.5-22.9,3.4c-25.2-3.3-46.1-29.9-46.1-53.1c0-35.7,50.6-43.9,57.7-38.4   c2.9-18.3,23.9-25.6,40.5-25.6c10.9,0,19.7-1.6,26.9,0c1.3,90.6,23.3,95.3,13.9,106.6c-10.2,12.3-24.7,19.9-40.7,19.9   C469.1,285.2,455.5,278.8,450.6,272.4L450.6,272.4z"
      id="path3"
    />
  
    <linearGradient
      id="SVGID_2_"
      gradientUnits="userSpaceOnUse"
      x1="1025.4178"
      y1="340.759"
      x2="1025.4178"
      y2="213.5479"
      gradientTransform="matrix(-1 0 0 -1 1506.1 498.7479)"
    >
    <stop offset="0" style="stop-color:#1A1A1A" id="stop4" />
    <stop offset="0.3497" style="stop-color:#1A1A1A" id="stop5" />
    <stop offset="1" style="stop-color:#666666" id="stop6" />
  </linearGradient>
  <path
      class="torax"
      d="M450.6,272.4c4.9,6.4,18.5,12.8,29.2,12.8c16.1,0,30.5-7.7,40.7-19.9c9.4-11.3-12.6-16-13.9-106.6   c-7.1-1.6-15.9,0-26.9,0c-16.5,0-36,6.6-40.5,25.6c-3.5,14.9,7.9,38.6,9,51.4C450.4,258.2,449.3,257,450.6,272.4z"
      id="path6"
    />
  <g id="g13">
    <path
        class="toraxshadow"
        d="M471.2,159.7c0,0-44.9,2.6-29.4,50.2l4.7,16C436.9,179.1,471.2,184.8,471.2,159.7L471.2,159.7z"
        id="path7"
      />
    <path
        class="mabdoment"
        d="M568.7,221.3v-50.5c0-6.5,1.9-11.7,5.6-15.4c3.6-3.7,8-5.6,13.2-5.6s9.6,1.9,13.2,5.6s5.3,8.9,5.3,15.4v50.5    c0,19.8,6.9,29.7,20.8,29.7c14.2,0,21.3-9.9,21.3-29.7v-50.5c0-6.5,1.8-11.7,5.3-15.4c3.6-3.7,8-5.6,13.2-5.6s9.7,1.9,13.5,5.6    c3.6,3.7,5.3,8.9,5.3,15.4v60.1c0,15.5-5.8,28.8-17.4,39.9c-11.6,11.2-24.8,16.8-39.6,16.8c-14.2,0-27.8-5.1-40.7-15.4    c-11.8,10.1-24.6,15.2-38.4,15.2c-16.3,0-30.2-5.7-41.8-17.1s-17.4-25.3-17.4-41.5V171c0-6.5,1.9-11.7,5.6-15.4    c3.6-3.7,7.9-5.6,13.2-5.6c5.2,0,9.6,1.9,13.2,5.6s5.3,8.9,5.3,15.4v50.5c0,8.2,0.7,14,2.2,17.4c3.6,8,9.7,12.1,18.5,12.1    C561.9,250.8,568.7,240.9,568.7,221.3L568.7,221.3z"
        id="path8"
      />
    
      <linearGradient
        id="SVGID_3_"
        gradientUnits="userSpaceOnUse"
        x1="918.35"
        y1="211.1479"
        x2="918.35"
        y2="348.9479"
        gradientTransform="matrix(-1 0 0 -1 1506.1 498.7479)"
      >
      <stop offset="0" style="stop-color:#FEC1BC" id="stop8" />
      <stop offset="0.2515" style="stop-color:#FEC1BC" id="stop9" />
      <stop offset="1" style="stop-color:#FEC1BC;stop-opacity:0" id="stop10" />
    </linearGradient>
    <path
        class="mgradient"
        d="M568.7,221.3v-50.5c0-6.5,1.9-11.7,5.6-15.4c3.6-3.7,8-5.6,13.2-5.6s9.6,1.9,13.2,5.6s5.3,8.9,5.3,15.4v50.5    c0,19.8,6.9,29.7,20.8,29.7c14.2,0,21.3-9.9,21.3-29.7v-50.5c0-6.5,1.8-11.7,5.3-15.4c3.6-3.7,8-5.6,13.2-5.6s9.7,1.9,13.5,5.6    c3.6,3.7,5.3,8.9,5.3,15.4v60.1c0,15.5-5.8,28.8-17.4,39.9c-11.6,11.2-24.8,16.8-39.6,16.8c-14.2,0-27.8-5.1-40.7-15.4    c-11.8,10.1-24.6,15.2-38.4,15.2c-16.3,0-30.2-5.7-41.8-17.1s-17.4-25.3-17.4-41.5V171c0-6.5,1.9-11.7,5.6-15.4    c3.6-3.7,7.9-5.6,13.2-5.6c5.2,0,9.6,1.9,13.2,5.6s5.3,8.9,5.3,15.4v50.5c0,8.2,0.7,14,2.2,17.4c3.6,8,9.7,12.1,18.5,12.1    C561.9,250.8,568.7,240.9,568.7,221.3L568.7,221.3z"
        id="path10"
      />
    <path
        class="wing"
        d="M646.5,330.9c0,0-18.9,25.5-130.3-16.6c-118.1-44.7-82.1-81.6-80.1-83.7s45.3-29.6,152.8-2.8    C705.2,256.7,646.5,330.9,646.5,330.9z"
        id="path11"
      />
    <path
        class="eyeshadow"
        d="M416.2,243.1c9.7,11.2,11.1,21.9,4.3,27.8s-17.4,2.9-27.1-8.2c-9.7-11.2-10.2-26.1-2.4-30.5    C398.4,227.9,406.5,231.9,416.2,243.1L416.2,243.1z"
        id="path12"
      />
    
      <radialGradient
        id="SVGID_4_"
        cx="1111.5884"
        cy="236.9447"
        r="20.6324"
        gradientTransform="matrix(-1 0 0 -1 1506.1 498.7479)"
        gradientUnits="userSpaceOnUse"
      >
      <stop offset="0" style="stop-color:#B3B3B3" id="stop12" />
      <stop offset="1" style="stop-color:#4D4D4D" id="stop13" />
    </radialGradient>
    <path
        class="eye"
        d="M414.3,244.1c9.7,11.2,11.1,21.9,4.3,27.8s-17.4,2.9-27.1-8.2c-9.7-11.2-10.2-26.1-2.4-30.5    C396.6,228.9,404.6,232.9,414.3,244.1L414.3,244.1z"
        id="path13"
      />
  </g>
  <path class="antenna" d="M428.1,275.8c0,0-6.1,46.4-51.2,35.6" id="path14" />
  <path class="antenna" d="M428.1,275.8c0,0-6.1,46.4-51.2,35.6" id="path15" />
  <path class="antenna" d="M431.9,271.9c0,0,4.6,48.4-40.8,29.6" id="path16" />
  <path class="antenna" d="M431.9,271.9c0,0,4.6,48.4-40.8,29.6" id="path17" />
  <circle class="antennatip" cx="375.7" cy="311.4" r="2.8" id="circle17" />
  <circle class="antennatip" cx="390" cy="301.5" r="3.3" id="circle18" />
  <path
      class="wingshadow"
      d="M429.5,244.5c-0.6-10.6,5.9-17.2,6.7-18.1c2-2.1,45.3-29.6,152.8-2.8c59.7,14.9,73.3,41.7,72.3,64.2    c-0.8-38.1-46.9-56.4-98.2-65.7c-70.8-12.8-109.1-2.7-126.3,7.7C430.5,235.9,429.5,244.5,429.5,244.5L429.5,244.5z"
      id="path18"
    />
  <path
      class="eyehilight"
      d="M407.6,271.5c0,0-5-0.5-8.1-5.8c-3.1-5.2,7.6,0.1,9.4,3C410.9,272,407.6,271.5,407.6,271.5z"
      id="path19"
    />
</g>
<path
    class="eyespiral spin"
    d="m 49.922167,108.50038 c -1.179744,3.44445 -5.457678,7.8494 -9.656377,9.74772 C 36.067091,120.14643 22.2,120.09737 17.6,109.89737 c -3.7,-8.1 0.2,-17.600002 8.7,-21.100002 6.8,-2.8 14.7,0.2 17.6,6.7 2.4,5.200002 -0.356256,13.144672 -5.256409,15.144742 -4.900153,2.00006 -11.065002,-0.40048 -12.765002,-4.15048 C 24.178588,102.74163 27.1,97.497368 30.6,95.997368 c 2.8,-1.2 6,0.1 7.2,2.700002 1,2.1 -0.1,4.6 -2.3,5.5 -1.8,0.7 -2.99129,-0.15885 -3.69129,-1.85885"
    id="path20"
  />
</svg>
