<svg enable-background="new 0 0 312.5 199.1" viewBox="0 0 312.5 199.1" xmlns="http://www.w3.org/2000/svg" xmlns:xlink="http://www.w3.org/1999/xlink"><linearGradient id="a"><stop offset="0" stop-color="#1a1a1a"/><stop offset=".3497" stop-color="#1a1a1a"/><stop offset="1" stop-color="#666"/></linearGradient><linearGradient id="b" gradientTransform="matrix(-1 0 0 1 1431.2 146.9)" gradientUnits="userSpaceOnUse" x1="978.9353" x2="978.9353" xlink:href="#a" y1="11.1368" y2="138.3479"/><linearGradient id="c" gradientTransform="matrix(-1 0 0 1 1431.2 146.9)" gradientUnits="userSpaceOnUse" x1="950.5179" x2="950.5179" xlink:href="#a" y1="11.1368" y2="138.3479"/><linearGradient id="d" gradientTransform="matrix(-1 0 0 1 1431.2 146.9)" gradientUnits="userSpaceOnUse" x1="843.4501" x2="843.4501" y1="140.7479" y2="2.9479"><stop offset="0" stop-color="#d5e20f"/><stop offset=".2515" stop-color="#d5e20f"/><stop offset="1" stop-color="#d5e20f" stop-opacity="0"/></linearGradient><radialGradient id="e" cx="1036.6884" cy="114.9032" gradientTransform="matrix(-1 0 0 1 1431.2 146.9)" gradientUnits="userSpaceOnUse" r="20.6324"><stop offset="0" stop-color="#b3b3b3"/><stop offset="1" stop-color="#4d4d4d"/></radialGradient><g transform="translate(-372.9 -149.84789)"><path clip-rule="evenodd" d="m661 341.2s-18.9 25.5-130.3-16.6c-118.1-44.7-82.1-81.6-80.1-83.7s45.3-29.6 152.8-2.8c116.2 28.9 57.6 103.1 57.6 103.1z" fill="#e6e6e6" fill-rule="evenodd" opacity=".75"/><path d="m450.6 272.4c-5.4 4.2-14.5 4.5-22.9 3.4-25.2-3.3-46.1-29.9-46.1-53.1 0-35.7 50.6-43.9 57.7-38.4 2.9-18.3 23.9-25.6 40.5-25.6 10.9 0 19.7-1.6 26.9 0 1.3 90.6 23.3 95.3 13.9 106.6-10.2 12.3-24.7 19.9-40.7 19.9-10.8 0-24.4-6.4-29.3-12.8z" fill="url(#b)"/><path d="m450.6 272.4c4.9 6.4 18.5 12.8 29.2 12.8 16.1 0 30.5-7.7 40.7-19.9 9.4-11.3-12.6-16-13.9-106.6-7.1-1.6-15.9 0-26.9 0-16.5 0-36 6.6-40.5 25.6-3.5 14.9 7.9 38.6 9 51.4 2.2 22.5 1.1 21.3 2.4 36.7z" fill="url(#c)"/><g clip-rule="evenodd" fill-rule="evenodd"><path d="m471.2 159.7s-44.9 2.6-29.4 50.2l4.7 16c-9.6-46.8 24.7-41.1 24.7-66.2z" opacity=".1"/><path d="m568.7 221.3v-50.5c0-6.5 1.9-11.7 5.6-15.4 3.6-3.7 8-5.6 13.2-5.6s9.6 1.9 13.2 5.6 5.3 8.9 5.3 15.4v50.5c0 19.8 6.9 29.7 20.8 29.7 14.2 0 21.3-9.9 21.3-29.7v-50.5c0-6.5 1.8-11.7 5.3-15.4 3.6-3.7 8-5.6 13.2-5.6s9.7 1.9 13.5 5.6c3.6 3.7 5.3 8.9 5.3 15.4v60.1c0 15.5-5.8 28.8-17.4 39.9-11.6 11.2-24.8 16.8-39.6 16.8-14.2 0-27.8-5.1-40.7-15.4-11.8 10.1-24.6 15.2-38.4 15.2-16.3 0-30.2-5.7-41.8-17.1s-17.4-25.3-17.4-41.5v-57.8c0-6.5 1.9-11.7 5.6-15.4 3.6-3.7 7.9-5.6 13.2-5.6 5.2 0 9.6 1.9 13.2 5.6s5.3 8.9 5.3 15.4v50.5c0 8.2.7 14 2.2 17.4 3.6 8 9.7 12.1 18.5 12.1 13.8-.2 20.6-10.1 20.6-29.7z" fill="#8ed300"/><path d="m568.7 221.3v-50.5c0-6.5 1.9-11.7 5.6-15.4 3.6-3.7 8-5.6 13.2-5.6s9.6 1.9 13.2 5.6 5.3 8.9 5.3 15.4v50.5c0 19.8 6.9 29.7 20.8 29.7 14.2 0 21.3-9.9 21.3-29.7v-50.5c0-6.5 1.8-11.7 5.3-15.4 3.6-3.7 8-5.6 13.2-5.6s9.7 1.9 13.5 5.6c3.6 3.7 5.3 8.9 5.3 15.4v60.1c0 15.5-5.8 28.8-17.4 39.9-11.6 11.2-24.8 16.8-39.6 16.8-14.2 0-27.8-5.1-40.7-15.4-11.8 10.1-24.6 15.2-38.4 15.2-16.3 0-30.2-5.7-41.8-17.1s-17.4-25.3-17.4-41.5v-57.8c0-6.5 1.9-11.7 5.6-15.4 3.6-3.7 7.9-5.6 13.2-5.6 5.2 0 9.6 1.9 13.2 5.6s5.3 8.9 5.3 15.4v50.5c0 8.2.7 14 2.2 17.4 3.6 8 9.7 12.1 18.5 12.1 13.8-.2 20.6-10.1 20.6-29.7z" fill="url(#d)"/><path d="m646.5 330.9s-18.9 25.5-130.3-16.6c-118.1-44.7-82.1-81.6-80.1-83.7s45.3-29.6 152.8-2.8c116.3 28.9 57.6 103.1 57.6 103.1z" fill="#fff" opacity=".8"/><path d="m416.2 243.1c9.7 11.2 11.1 21.9 4.3 27.8s-17.4 2.9-27.1-8.2c-9.7-11.2-10.2-26.1-2.4-30.5 7.4-4.3 15.5-.3 25.2 10.9z" fill="#4d4d4d"/><path d="m414.3 244.1c9.7 11.2 11.1 21.9 4.3 27.8s-17.4 2.9-27.1-8.2c-9.7-11.2-10.2-26.1-2.4-30.5 7.5-4.3 15.5-.3 25.2 10.9z" fill="url(#e)"/></g><path d="m428.1 275.8s-6.1 46.4-51.2 35.6" fill="none" stroke="#666" stroke-miterlimit="3.8637"/><path d="m428.1 275.8s-6.1 46.4-51.2 35.6" fill="none" stroke="#666" stroke-miterlimit="3.8637" stroke-width="2.058"/><path d="m431.9 271.9s4.6 48.4-40.8 29.6" fill="none" stroke="#666" stroke-miterlimit="3.8637" stroke-width="2.058"/><path d="m431.9 271.9s4.6 48.4-40.8 29.6" fill="none" stroke="#666" stroke-miterlimit="3.8637" stroke-width="2.058"/><g clip-rule="evenodd" fill-rule="evenodd"><circle cx="375.7" cy="311.4" fill="#666" r="2.8"/><circle cx="390" cy="301.5" fill="#666" r="3.3"/><path d="m429.5 244.5c-.6-10.6 5.9-17.2 6.7-18.1 2-2.1 45.3-29.6 152.8-2.8 59.7 14.9 73.3 41.7 72.3 64.2-.8-38.1-46.9-56.4-98.2-65.7-70.8-12.8-109.1-2.7-126.3 7.7-6.3 6.1-7.3 14.7-7.3 14.7z" opacity=".1"/><path d="m407.6 271.5s-5-.5-8.1-5.8c-3.1-5.2 7.6.1 9.4 3 2 3.3-1.3 2.8-1.3 2.8z" fill="#fff" opacity=".15"/></g></g><path d="m56.8 85.1c5.8 12.7-.3 27.5-13.6 33-10.6 4.4-23-.2-27.6-10.4-3.7-8.1.2-17.6 8.7-21.1 6.8-2.8 14.7.2 17.6 6.7 2.4 5.2-.1 11.3-5.6 13.5-4.3 1.8-9.4-.1-11.3-4.3-1.5-3.3.1-7.2 3.6-8.7 2.8-1.2 6 .1 7.2 2.7 1 2.1-.1 4.6-2.3 5.5-1.8.7-3.9 0-4.6-1.7" fill="none" stroke="#9eb63e" stroke-miterlimit="10" stroke-width="3"/></svg>