<svg width="253" height="153" viewBox="0 0 253 153" fill="none" xmlns="http://www.w3.org/2000/svg">
<path d="M40.7 29.6094L29.4651 27.2093C26.9419 26.7032 25.0546 25.9237 23.8169 24.8775C22.5724 23.8244 21.9569 22.4978 21.9569 20.9046C21.9569 19.8105 22.2852 18.8532 22.9348 18.0326C23.5844 17.212 24.5349 16.5829 25.7726 16.1385C27.0103 15.694 28.4531 15.4752 30.0942 15.4752C32.3644 15.4752 34.5321 15.8513 36.5972 16.6103C38.6554 17.3693 40.7 18.566 42.7172 20.2071C44.8234 21.7662 46.5329 22.8808 47.8594 23.5509C49.186 24.221 50.54 24.5629 51.9281 24.5629C53.3162 24.5629 54.5812 24.2484 55.7164 23.6193C56.8515 22.9902 57.7336 22.1149 58.3695 21.0003C58.9986 19.8857 59.3132 18.6549 59.3132 17.3078C59.3132 15.2905 58.7798 13.3554 57.7062 11.5023C56.6327 9.64916 55.0873 7.98752 53.07 6.51734C50.4169 4.54115 47.1141 3.01626 43.1617 1.94269C39.2025 0.862282 34.9766 0.328915 30.4771 0.328915C24.7947 0.328915 19.8508 1.2247 15.6454 3.00943C11.44 4.80099 8.18513 7.34474 5.89439 10.6475C3.60365 13.9503 2.45486 17.8343 2.45486 22.2927C2.45486 27.5512 4.21907 31.9343 7.75434 35.4491C11.2896 38.9638 16.4181 41.4529 23.1536 42.9299L33.5679 45.1386C36.1732 45.6856 38.0674 46.5062 39.2504 47.6003C40.4265 48.6944 41.0146 50.144 41.0146 51.9561C41.0146 53.2212 40.659 54.2879 39.941 55.1768C39.223 56.0589 38.1973 56.7222 36.8502 57.1667C35.5031 57.6112 33.8825 57.83 31.9884 57.83C29.0001 57.83 26.2581 57.324 23.7554 56.3188C21.2526 55.3068 18.6747 53.6246 16.0284 51.2723C14.3052 49.8021 12.8077 48.7696 11.5495 48.1815C10.2844 47.5935 8.93732 47.2994 7.50817 47.2994C6.07902 47.2994 4.73192 47.614 3.59681 48.2431C2.46169 48.8722 1.57959 49.7474 0.94365 50.862C0.31455 51.9766 0 53.269 0 54.746C0 56.3872 0.369254 57.9873 1.10776 59.5395C1.84627 61.0986 2.82411 62.5072 4.04128 63.7654C6.69444 66.7536 10.4349 69.1264 15.2762 70.8975C20.1107 72.6617 25.376 73.5507 31.0515 73.5507C37.11 73.5507 42.3548 72.6138 46.7996 70.7402C51.2374 68.8666 54.6565 66.1792 57.0566 62.6645C59.4568 59.1497 60.6534 54.9785 60.6534 50.1372C60.6534 44.6668 59.0123 40.2494 55.73 36.8851C52.4478 33.5208 47.4423 31.1001 40.7137 29.6299L40.7 29.6094Z" fill="#0B2E34"/>
<path d="M248.962 13.9913C246.603 9.55343 243.3 6.1686 239.054 3.82999C234.807 1.49138 229.925 0.328911 224.414 0.328911C218.437 0.328911 213.432 1.34094 209.397 3.35816C205.732 5.19076 202.833 7.65929 200.692 10.7432C198.641 7.86443 196.084 5.56001 193.02 3.83683C188.876 1.49822 184.049 0.335749 178.537 0.335749C173.443 0.335749 168.984 1.42984 165.162 3.61801C162.885 4.91724 161.018 6.55837 159.548 8.51405C159.363 7.4268 159.035 6.41477 158.536 5.47796C157.736 3.98726 156.621 2.81796 155.192 1.97688C153.763 1.1358 152.142 0.711841 150.33 0.711841C148.518 0.711841 146.891 1.1358 145.441 1.97688C143.991 2.81796 142.863 3.98726 142.063 5.47796C141.263 6.96865 140.866 8.66448 140.866 10.5586V63.3073C140.866 65.2014 141.263 66.8972 142.063 68.3879C142.863 69.8786 143.991 71.0479 145.441 71.889C146.891 72.7301 148.525 73.154 150.33 73.154C152.136 73.154 153.756 72.7301 155.192 71.889C156.621 71.0479 157.736 69.8786 158.536 68.3879C159.336 66.8972 159.733 65.2014 159.733 63.3073V33.5823C159.733 30.3889 160.314 27.5648 161.469 25.1236C162.625 22.6825 164.287 20.802 166.454 19.4754C168.622 18.1488 171.132 17.4856 173.997 17.4856C178.161 17.4856 181.402 18.8121 183.714 21.4585C186.025 24.1048 187.187 27.9409 187.187 32.9464V63.3004C187.187 65.1535 187.584 66.822 188.384 68.3195C189.184 69.8102 190.305 70.9932 191.762 71.8548C193.212 72.7164 194.846 73.1472 196.651 73.1472C198.456 73.1472 200.091 72.7232 201.54 71.8822C202.99 71.0411 204.118 69.8718 204.918 68.3811C205.718 66.8904 206.115 65.1946 206.115 63.3004V33.5823C206.115 30.3889 206.689 27.5648 207.852 25.1236C209.008 22.6825 210.662 20.802 212.803 19.4754C214.95 18.1488 217.473 17.4856 220.372 17.4856C224.537 17.4856 227.778 18.8121 230.089 21.4585C232.4 24.1116 233.563 27.9409 233.563 32.9464V63.3004C233.563 65.1535 233.96 66.822 234.76 68.3195C235.56 69.8102 236.681 70.9932 238.138 71.8548C239.587 72.7164 241.222 73.1472 243.027 73.1472C244.832 73.1472 246.453 72.7232 247.889 71.8822C249.318 71.0411 250.446 69.8718 251.267 68.3811C252.087 66.8904 252.497 65.1946 252.497 63.3004V29.9855C252.497 23.7629 251.321 18.4292 248.962 13.9913Z" fill="#0B2E34"/>
<path d="M99.6139 0C79.216 0 62.6885 16.5344 62.6885 36.9254C62.6885 57.3165 79.2229 73.8508 99.6139 73.8508C120.005 73.8508 136.539 57.3165 136.539 36.9254C136.539 16.5344 120.012 0 99.6139 0ZM99.566 55.0394C89.5346 55.0394 81.4042 46.909 81.4042 36.8776C81.4042 26.8461 89.5346 18.7157 99.566 18.7157C109.597 18.7157 117.728 26.8461 117.728 36.8776C117.728 46.909 109.597 55.0394 99.566 55.0394Z" fill="#0B2E34"/>
<path d="M37.8075 116.984C37.4793 117.545 37.0143 117.982 36.4126 118.297C35.8108 118.612 35.1407 118.769 34.409 118.769H10.6742C10.1477 118.769 9.72369 118.94 9.39547 119.282C9.06724 119.624 8.90313 120.082 8.90313 120.656C8.90313 122.591 9.35444 124.39 10.2571 126.051C11.1597 127.713 12.411 129.04 14.0043 130.031C15.5976 131.029 17.4712 131.522 19.6183 131.522C21.9433 131.522 23.9673 130.968 25.6837 129.853C27.4 128.739 28.7129 127.48 29.6292 126.065C30.019 125.491 30.525 125.039 31.1404 124.711C31.7559 124.383 32.4055 124.226 33.0824 124.239C33.7594 124.253 34.3612 124.444 34.8877 124.807L35.086 124.964C35.633 125.306 36.0501 125.778 36.3442 126.38C36.6314 126.981 36.7476 127.617 36.6998 128.281C36.6451 128.951 36.4399 129.566 36.0707 130.147C35.2296 131.433 34.0671 132.677 32.5764 133.895C31.0857 135.112 29.2258 136.144 27.0034 136.992C24.7811 137.84 22.3194 138.271 19.6252 138.271C15.7822 138.271 12.37 137.389 9.40231 135.625C6.4346 133.86 4.12334 131.371 2.47537 128.171C0.827403 124.964 0 121.258 0 117.046C0 112.833 0.827403 109.202 2.47537 106.002C4.12334 102.795 6.41408 100.313 9.34076 98.5487C12.2674 96.7845 15.6044 95.9024 19.3448 95.9024C23.0852 95.9024 26.3265 96.7572 29.2121 98.4735C32.1046 100.19 34.3406 102.501 35.9202 105.421C37.4998 108.341 38.293 111.562 38.293 115.097C38.293 115.801 38.1289 116.437 37.8007 116.998L37.8075 116.984ZM14.2436 103.404C12.7529 104.149 11.611 105.182 10.8109 106.501C10.0109 107.821 9.61429 109.271 9.61429 110.837C9.61429 111.336 9.75788 111.746 10.0451 112.074C10.3323 112.403 10.7494 112.567 11.3033 112.567H27.4342C28.0086 112.567 28.4326 112.403 28.7129 112.074C28.9865 111.746 29.1232 111.322 29.1232 110.803C29.1232 109.23 28.7266 107.801 27.9266 106.508C27.1265 105.216 25.9846 104.19 24.4939 103.424C23.0032 102.665 21.3005 102.289 19.3927 102.289C17.4849 102.289 15.7412 102.665 14.2505 103.411L14.2436 103.404Z" fill="#0B2E34"/>
<path d="M71.9374 97.541C74.0436 98.6419 75.6778 100.269 76.8403 102.423C78.0028 104.584 78.584 107.217 78.584 110.328V133.598C78.584 134.384 78.4062 135.082 78.0575 135.697C77.7019 136.313 77.2301 136.798 76.6283 137.147C76.0266 137.503 75.3359 137.68 74.5496 137.68H74.4675C73.6811 137.68 72.9837 137.503 72.3682 137.147C71.7528 136.791 71.2673 136.313 70.9186 135.697C70.563 135.082 70.392 134.384 70.392 133.598V111.621C70.392 108.612 69.7288 106.335 68.409 104.789C67.0893 103.244 65.1199 102.471 62.5009 102.471C60.5931 102.471 58.8152 102.882 57.1809 103.709C55.5467 104.536 54.2269 105.842 53.2149 107.634C52.2097 109.426 51.7037 111.655 51.7037 114.328V133.598C51.7037 134.384 51.5259 135.082 51.1772 135.697C50.8216 136.313 50.3497 136.798 49.748 137.147C49.1462 137.503 48.4556 137.68 47.6692 137.68H47.6282C46.8418 137.68 46.1444 137.503 45.5289 137.147C44.9135 136.791 44.428 136.313 44.0793 135.697C43.7237 135.082 43.5527 134.384 43.5527 133.598V100.557C43.5527 99.7702 43.7237 99.0727 44.0656 98.4573C44.4075 97.8419 44.893 97.3564 45.5153 97.0077C46.1444 96.6521 46.835 96.4811 47.594 96.4811H47.635C48.4488 96.4811 49.1189 96.6384 49.6591 96.9529C50.1925 97.2675 50.7122 97.712 51.2113 98.2864L51.1703 98.3684L51.6832 99.0386C52.0524 99.4557 52.4969 99.695 53.0166 99.7429C53.5431 99.7976 54.0218 99.6403 54.4662 99.271C55.8817 98.2522 57.3451 97.4316 58.8631 96.8162C60.3812 96.2008 62.3026 95.8931 64.6344 95.8931C67.4038 95.8931 69.845 96.4401 71.9511 97.541H71.9374Z" fill="#0B2E34"/>
<path d="M121.746 116.984C121.418 117.545 120.953 117.982 120.351 118.297C119.75 118.612 119.079 118.769 118.348 118.769H94.6061C94.0795 118.769 93.6556 118.94 93.3342 119.282C93.006 119.624 92.8419 120.082 92.8419 120.656C92.8419 122.591 93.2932 124.39 94.1958 126.051C95.0984 127.713 96.3498 129.04 97.943 130.031C99.5363 131.029 101.41 131.522 103.557 131.522C105.882 131.522 107.906 130.968 109.622 129.853C111.339 128.739 112.652 127.48 113.568 126.065C113.958 125.491 114.464 125.039 115.079 124.711C115.695 124.383 116.344 124.226 117.021 124.239C117.698 124.253 118.3 124.444 118.826 124.807L119.025 124.964C119.572 125.306 119.989 125.778 120.283 126.38C120.57 126.981 120.686 127.617 120.638 128.281C120.584 128.951 120.379 129.566 120.009 130.147C119.168 131.433 118.006 132.677 116.515 133.895C115.024 135.112 113.165 136.144 110.942 136.992C108.72 137.84 106.258 138.271 103.564 138.271C99.7209 138.271 96.3087 137.389 93.341 135.625C90.3733 133.86 88.0621 131.371 86.4141 128.171C84.7661 124.964 83.9387 121.258 83.9387 117.046C83.9387 112.833 84.7661 109.202 86.4141 106.002C88.0621 102.795 90.3528 100.313 93.2795 98.5487C96.2062 96.7845 99.5431 95.9024 103.284 95.9024C107.024 95.9024 110.265 96.7572 113.151 98.4735C116.043 100.19 118.279 102.501 119.859 105.421C121.439 108.341 122.232 111.562 122.232 115.097C122.232 115.801 122.068 116.437 121.739 116.998L121.746 116.984ZM98.1824 103.404C96.6917 104.149 95.5497 105.182 94.7497 106.501C93.9496 107.821 93.553 109.271 93.553 110.837C93.553 111.336 93.6966 111.746 93.9838 112.074C94.271 112.403 94.6881 112.567 95.242 112.567H111.373C111.947 112.567 112.371 112.403 112.645 112.074C112.918 111.746 113.055 111.322 113.055 110.803C113.055 109.23 112.658 107.801 111.858 106.508C111.058 105.216 109.916 104.19 108.426 103.424C106.935 102.665 105.232 102.289 103.325 102.289C101.417 102.289 99.6731 102.665 98.1824 103.411V103.404Z" fill="#0B2E34"/>
<path d="M150.055 96.9815C150.684 97.3234 151.176 97.7884 151.545 98.3765C151.915 98.9645 152.092 99.6415 152.092 100.401V100.674C152.092 101.433 151.908 102.103 151.545 102.698C151.176 103.286 150.684 103.751 150.055 104.093C149.425 104.435 148.735 104.606 147.976 104.606H146.013C143.818 104.606 141.945 105.071 140.399 106.001C138.854 106.931 137.657 108.435 136.809 110.514C135.961 112.593 135.531 115.348 135.531 118.774V133.606C135.531 134.392 135.353 135.09 135.004 135.705C134.648 136.321 134.17 136.806 133.554 137.155C132.939 137.511 132.241 137.688 131.455 137.688H131.414C130.628 137.688 129.937 137.511 129.335 137.155C128.734 136.799 128.255 136.321 127.906 135.705C127.551 135.09 127.38 134.392 127.38 133.606V100.565C127.38 99.7783 127.557 99.0808 127.906 98.4654C128.262 97.8499 128.74 97.3644 129.356 97.0157C129.971 96.6601 130.669 96.4892 131.455 96.4892H131.571C132.406 96.4892 133.083 96.6738 133.595 97.0362C134.108 97.4055 134.566 97.9252 134.99 98.6021L135.462 99.2723C135.777 99.7988 136.228 100.086 136.816 100.134C137.404 100.189 137.944 99.9903 138.444 99.5458C138.758 99.2586 139.121 98.9304 139.545 98.5679C140.092 98.1782 140.686 97.8294 141.309 97.5286C141.938 97.2277 142.704 96.9815 143.606 96.7832C144.509 96.5849 145.535 96.4892 146.683 96.4892H147.976C148.735 96.4892 149.425 96.6601 150.055 97.002V96.9815Z" fill="#0B2E34"/>
<path d="M161.621 150.909C158.701 149.521 156.486 147.429 154.968 144.632C154.598 143.928 154.407 143.223 154.38 142.533C154.352 141.842 154.496 141.193 154.81 140.591C155.125 139.989 155.583 139.517 156.185 139.175L156.383 139.059C156.958 138.69 157.6 138.519 158.305 138.533C159.009 138.546 159.672 138.731 160.288 139.08C160.903 139.435 161.395 139.948 161.758 140.632C162.777 142.437 164.09 143.853 165.703 144.871C167.31 145.89 169.396 146.403 171.96 146.403C174.285 146.403 176.289 145.945 177.964 145.029C179.639 144.112 180.925 142.799 181.827 141.083C182.73 139.367 183.181 137.295 183.181 134.861V133.76C183.181 133.13 183.017 132.652 182.689 132.33C182.361 132.009 181.91 131.838 181.335 131.838C181.048 131.838 180.754 131.913 180.453 132.05C180.152 132.194 179.756 132.426 179.256 132.734C178.47 133.26 177.718 133.698 177 134.047C176.282 134.402 175.4 134.724 174.353 135.011C173.307 135.298 172.076 135.442 170.668 135.442C167.447 135.442 164.5 134.614 161.819 132.966C159.139 131.318 156.999 129 155.405 126.019C153.812 123.038 153.012 119.612 153.012 115.735C153.012 111.857 153.792 108.418 155.344 105.395C156.903 102.373 159.023 100.034 161.703 98.3727C164.384 96.7111 167.345 95.8837 170.593 95.8837C172.87 95.8837 174.771 96.1846 176.302 96.7863C177.834 97.3881 179.188 98.1197 180.364 98.9813L180.562 99.0976C181.034 99.4668 181.568 99.6446 182.169 99.6446C182.771 99.6446 183.257 99.3984 183.619 98.8993L183.975 98.3112C184.364 97.7094 184.809 97.2513 185.308 96.9368C185.807 96.6222 186.429 96.4649 187.188 96.4649H187.264C188.05 96.4649 188.754 96.6427 189.384 96.9915C190.013 97.347 190.505 97.8325 190.854 98.4411C191.209 99.0565 191.38 99.7814 191.38 100.616V134.915C191.38 138.868 190.594 142.191 189.028 144.885C187.462 147.579 185.212 149.603 182.299 150.95C179.379 152.298 175.933 152.974 171.96 152.974C167.987 152.974 164.534 152.284 161.621 150.896V150.909ZM180.556 125.438C182.436 123.161 183.38 119.906 183.38 115.666C183.38 111.427 182.436 108.206 180.556 105.915C178.675 103.624 175.974 102.482 172.473 102.482C168.972 102.482 166.264 103.624 164.37 105.915C162.476 108.206 161.525 111.454 161.525 115.666C161.525 119.878 162.476 123.161 164.37 125.438C166.264 127.715 168.965 128.85 172.473 128.85C175.981 128.85 178.675 127.715 180.556 125.438Z" fill="#0B2E34"/>
<path d="M198.912 83.3672C199.356 82.5809 199.971 81.9654 200.758 81.521C201.544 81.0765 202.433 80.8508 203.425 80.8508H203.698C204.69 80.8508 205.572 81.0765 206.345 81.521C207.117 81.9654 207.726 82.5809 208.17 83.3672C208.615 84.1536 208.84 85.0426 208.84 86.0341V86.5059C208.84 87.5043 208.615 88.3932 208.17 89.1727C207.726 89.9591 207.117 90.5745 206.345 91.019C205.572 91.4635 204.69 91.6891 203.698 91.6891H203.425C202.433 91.6891 201.544 91.4703 200.758 91.019C199.971 90.5745 199.356 89.9591 198.912 89.1727C198.467 88.3864 198.241 87.4974 198.241 86.5059V86.0341C198.241 85.0426 198.46 84.1468 198.912 83.3672ZM199.992 98.4588C200.348 97.8434 200.826 97.3579 201.442 97.0091C202.057 96.6536 202.741 96.4826 203.5 96.4826H203.575C204.334 96.4826 205.018 96.6604 205.633 97.0091C206.249 97.3647 206.734 97.8502 207.083 98.4588C207.439 99.0742 207.61 99.758 207.61 100.517V133.641C207.61 134.4 207.432 135.09 207.083 135.699C206.727 136.314 206.242 136.8 205.633 137.148C205.018 137.504 204.334 137.682 203.575 137.682H203.5C202.741 137.682 202.05 137.504 201.442 137.148C200.826 136.793 200.341 136.314 199.992 135.699C199.636 135.083 199.465 134.4 199.465 133.641V100.517C199.465 99.758 199.643 99.0742 199.992 98.4588Z" fill="#0B2E34"/>
<path d="M236.96 96.8342C238.506 97.4633 239.928 98.2838 241.234 99.3096L241.706 99.6993C242.205 100.014 242.711 100.137 243.238 100.069C243.764 100.007 244.195 99.7062 244.53 99.1865L244.961 98.4411C245.33 97.812 245.781 97.3265 246.315 96.9915C246.848 96.6564 247.498 96.4786 248.257 96.4786H248.339C249.228 96.4786 249.98 96.6769 250.595 97.0667C251.211 97.4564 251.676 97.9761 251.99 98.6189C252.305 99.2617 252.462 99.9865 252.462 100.8V133.486C252.462 134.32 252.278 135.052 251.915 135.681C251.546 136.31 251.074 136.803 250.486 137.151C249.898 137.507 249.235 137.685 248.503 137.685H248.421C247.532 137.685 246.835 137.514 246.322 137.172C245.809 136.83 245.385 136.399 245.05 135.879L244.66 135.052C244.291 134.532 243.833 134.211 243.286 134.088C242.739 133.965 242.157 134.122 241.556 134.539C240.195 135.667 238.725 136.57 237.138 137.247C235.552 137.931 233.589 138.266 231.23 138.266C227.777 138.266 224.679 137.37 221.951 135.579C219.216 133.787 217.075 131.284 215.537 128.084C213.998 124.884 213.219 121.225 213.219 117.116C213.219 113.006 213.991 109.307 215.537 106.086C217.082 102.865 219.223 100.363 221.971 98.571C224.72 96.7795 227.804 95.8837 231.23 95.8837C233.507 95.8837 235.415 96.1982 236.96 96.8273V96.8342ZM241.316 127.872C243.251 125.335 244.222 121.738 244.222 117.082C244.222 112.425 243.251 108.794 241.316 106.271C239.381 103.747 236.632 102.482 233.076 102.482C229.521 102.482 226.683 103.747 224.72 106.271C222.758 108.794 221.78 112.398 221.78 117.082C221.78 121.766 222.758 125.335 224.72 127.872C226.683 130.409 229.466 131.681 233.076 131.681C236.687 131.681 239.381 130.409 241.316 127.872Z" fill="#0B2E34"/>
</svg>