<svg width="1098" height="562" viewBox="0 0 1098 562" fill="none" xmlns="http://www.w3.org/2000/svg">
<g clip-path="url(#clip0_3_365)">
<rect width="1098" height="562" fill="#AFB5E8"/>
<path d="M1148.44 -228.702C1144.88 -231.023 1141.12 -233.178 1137.28 -235.108C1110.19 -248.673 1079.2 -250.915 1050.05 -241.428C1020.89 -231.94 997.059 -211.842 982.926 -184.848C972.755 -165.424 968.415 -143.784 970.367 -122.293C971.669 -107.947 965.011 -93.9312 952.962 -85.6231C940.913 -77.315 925.369 -76.0225 912.307 -82.2546C912.04 -82.3763 911.733 -82.5416 911.442 -82.679C836.162 -120.305 743.047 -89.968 703.796 -15.0132C667.544 54.2342 689.179 138.381 754.103 180.699C758.912 183.833 763.969 186.729 769.137 189.331C811.113 210.352 860.076 211.006 903.496 191.119C916.408 185.202 931.136 186.46 942.498 193.866C945.236 195.65 947.769 197.789 950.041 200.262C961.722 213.032 963.579 231.953 954.626 247.016C953.199 249.413 951.809 251.885 950.507 254.38C914.239 323.652 935.874 407.798 1000.81 450.124C1005.61 453.251 1010.66 456.146 1015.84 458.737C1052.3 476.998 1094 480.02 1133.22 467.241C1172.45 454.463 1204.53 427.427 1223.55 391.11C1225.91 386.586 1228.09 381.912 1229.97 377.205C1235.04 364.693 1246.09 355.458 1259.39 352.612C1270.06 350.341 1281.03 352.42 1289.87 358.183C1292.05 359.604 1294.1 361.251 1295.98 363.107C1300.02 367.078 1304.5 370.676 1309.32 373.818C1312.03 375.587 1314.9 377.23 1317.83 378.704C1360.54 400.082 1413.4 382.882 1435.66 340.339C1456.23 301.048 1443.96 253.306 1407.12 229.297C1404.38 227.513 1401.52 225.87 1398.6 224.404C1377.91 214.05 1354.26 212.328 1332.01 219.575C1314.59 225.239 1299.66 235.809 1288.77 250.149C1280.55 260.972 1267.43 267.048 1253.87 266.307C1246.71 265.906 1239.93 263.647 1234.16 259.889C1229 256.526 1224.64 251.958 1221.51 246.469C1214.06 233.395 1204.67 221.545 1193.61 211.269C1185.53 203.776 1181.03 193.246 1181.15 182.216C1181.27 171.185 1186.02 160.623 1194.27 153.06C1201.77 146.18 1207.97 138.096 1212.71 129.032C1233.28 89.7415 1221.02 42.007 1184.17 17.9899C1181.45 16.2136 1178.57 14.5628 1175.65 13.0966C1174.77 12.6643 1173.91 12.24 1173.04 11.8477C1171.27 11.0274 1169.57 10.0904 1167.97 9.0482C1158.73 3.02422 1152.41 -6.61192 1150.68 -17.633C1148.65 -30.5697 1153.23 -43.7691 1162.9 -52.8956C1172.18 -61.6622 1179.91 -71.8637 1185.86 -83.2458C1212.8 -134.716 1196.73 -197.244 1148.46 -228.706L1148.44 -228.702ZM1009.29 51.1758C1000.35 45.3492 994.007 36.0618 992.112 25.1784C991.746 23.1113 991.348 21.0405 990.889 18.9824C987.783 4.80233 992.789 -10.0471 1003.93 -19.7283C1015.08 -29.4095 1030.59 -32.3798 1044.39 -27.4762C1045.86 -26.9496 1047.33 -26.4628 1048.82 -26.0003C1052.39 -24.8887 1055.73 -23.3024 1058.77 -21.3207C1066.45 -16.3152 1072.22 -8.74047 1074.91 0.221099C1078.65 12.7211 1075.89 26.3558 1067.55 36.6433C1066.49 37.9428 1065.46 39.2902 1064.5 40.645C1055.01 53.7908 1038.55 60.1501 1022.75 56.7834C1017.85 55.7284 1013.31 53.817 1009.29 51.1958L1009.29 51.1758ZM984.845 182.231C982.108 180.447 979.575 178.308 977.303 175.835C965.609 163.058 963.753 144.136 972.717 129.081C974.144 126.684 975.523 124.204 976.836 121.717C977.532 120.377 978.204 119.073 978.843 117.765C985.929 103.244 1001.06 94.2143 1017.24 94.8501C1024.68 95.1522 1031.66 97.4409 1037.59 101.302C1044.55 105.841 1050.02 112.542 1052.99 120.656C1053.79 122.831 1054.68 124.997 1055.63 127.099C1060.23 137.079 1060.4 148.548 1056.12 158.785C1051.84 169.022 1043.48 177.119 1033.03 181.122C1029.96 182.309 1026.87 183.604 1023.86 184.986C1010.95 190.903 996.199 189.649 984.849 182.251L984.845 182.231Z" fill="#FFCDB5"/>
<path d="M1230.22 -189.776C1245.64 -203.618 1269.37 -202.335 1283.21 -186.909C1297.05 -171.484 1295.77 -147.758 1280.34 -133.916C1264.92 -120.074 1241.19 -121.358 1227.35 -136.783C1213.51 -152.208 1214.79 -175.934 1230.22 -189.776Z" fill="#FFCDB5"/>
</g>
<defs>
<clipPath id="clip0_3_365">
<rect width="1098" height="562" fill="white"/>
</clipPath>
</defs>
</svg>
