<?xml version="1.0" encoding="UTF-8"?><svg id="manteniment" xmlns="http://www.w3.org/2000/svg" viewBox="0 0 663.35 333.08"><defs><style>.cls-1,.cls-2,.cls-3,.cls-4,.cls-5,.cls-6,.cls-7,.cls-8,.cls-9,.cls-10{stroke-linejoin:round;}.cls-1,.cls-2,.cls-3,.cls-6,.cls-7,.cls-8{fill:none;}.cls-1,.cls-2,.cls-4,.cls-5,.cls-6,.cls-7,.cls-8{stroke-width:4.33px;}.cls-1,.cls-3,.cls-5,.cls-6,.cls-9{stroke:#6c7521;}.cls-2,.cls-4,.cls-8,.cls-10{stroke:#95be1d;}.cls-3{stroke-width:2.89px;}.cls-3,.cls-6,.cls-7,.cls-8{stroke-linecap:round;}.cls-4{fill:#95be1d;}.cls-5{fill:#6c7521;}.cls-7{stroke:#4d4d4c;}.cls-9,.cls-10{fill:#fff;stroke-width:4.76px;}</style></defs><rect class="cls-2" x="211.22" y="105.42" width="73.61" height="72.05" rx="7.26" ry="7.26"/><rect class="cls-2" x="169.01" y="110.28" width="36.81" height="62.31" rx="4.78" ry="4.78"/><ellipse class="cls-10" cx="213.15" cy="141.44" rx="10.71" ry="46.76"/><path class="cls-4" d="m169.01,152.2h-24.32s-6.7-.73-6.7-11.13,6.3-10.4,6.3-10.4h24.72"/><path class="cls-2" d="m284.83,115.89h27.91s7.69.55,7.69,8.47c0,7.91-7.23,7.91-7.23,7.91h-28.38"/><path class="cls-2" d="m284.83,150.55h27.91s7.69.55,7.69,8.47c0,7.91-7.23,7.91-7.23,7.91h-28.38"/><rect class="cls-2" x="252" y="137.88" width="32.83" height="7.11" rx="1.23" ry="1.23"/><line class="cls-8" x1="184.17" y1="128.9" x2="184.17" y2="153.98"/><path class="cls-2" d="m137.99,141.07c-12.1-1.22-38.63-7.09-69.24,2.03-15.39,4.58-29.33,16.67-35.2,23.83-6.11,7.45-18.14,39.53,15.16,47.66,33.31,8.12,48.52-4.91,49.15-12.59,1.22-15.03-10.76-27.21-30.26-21.53-19.5,5.69-17.26,33.31-1.83,51.99,15.43,18.68,68.71,59.3,109.26,69.86"/><line class="cls-7" x1="288.92" y1="73.36" x2="282.91" y2="62.67"/><line class="cls-7" x1="276.66" y1="51.55" x2="270.65" y2="40.87"/><line class="cls-7" x1="358.49" y1="73.36" x2="364.5" y2="62.67"/><line class="cls-7" x1="370.76" y1="51.55" x2="376.77" y2="40.87"/><line class="cls-7" x1="323.71" y1="68.04" x2="323.71" y2="55.77"/><line class="cls-7" x1="323.71" y1="43.02" x2="323.71" y2="30.75"/><line class="cls-7" x1="288.93" y1="211.52" x2="282.91" y2="222.21"/><line class="cls-7" x1="276.66" y1="233.32" x2="270.65" y2="244.01"/><line class="cls-7" x1="358.49" y1="211.52" x2="364.51" y2="222.21"/><line class="cls-7" x1="370.76" y1="233.32" x2="376.77" y2="244.01"/><line class="cls-7" x1="323.71" y1="216.84" x2="323.71" y2="229.1"/><line class="cls-7" x1="323.71" y1="241.86" x2="323.71" y2="254.12"/><path class="cls-1" d="m513.99,141.8s32.02,8.88,63.43-1.95c31.41-10.83,79.07-61.74,51.18-82.86-27.89-21.12-54.97,28.43-46.03,107.5,8.94,79.07,5.69,53.34,5.69,53.34"/><rect class="cls-1" x="372.56" y="105.42" width="73.61" height="72.05" rx="7.26" ry="7.26"/><rect class="cls-1" x="446.17" y="110.28" width="36.81" height="62.31" rx="4.78" ry="4.78"/><ellipse class="cls-9" cx="376.77" cy="141.44" rx="9.74" ry="46.76"/><path class="cls-5" d="m482.97,130.67h24.32s6.7.73,6.7,11.13-6.3,10.4-6.3,10.4h-24.72"/><line class="cls-6" x1="466.85" y1="128.9" x2="466.85" y2="153.98"/><line class="cls-3" x1="376.77" y1="117.3" x2="376.77" y2="130.86"/><line class="cls-3" x1="376.77" y1="151.96" x2="376.77" y2="165.52"/></svg>